<svg width="200" height="60" viewBox="0 0 200 60" fill="none" xmlns="http://www.w3.org/2000/svg">
  <!-- Logo Icon -->
  <g id="logo-icon">
    <!-- Main arch shape -->
    <path d="M20 10C20 4.47715 24.4772 0 30 0H50C55.5228 0 60 4.47715 60 10V30C60 35.5228 55.5228 40 50 40H30C24.4772 40 20 35.5228 20 30V10Z" fill="#c2767b"/>
    
    <!-- Inner white flowing shape -->
    <path d="M25 15C25 12.7909 26.7909 11 29 11C31.2091 11 33 12.7909 33 15V25C33 27.2091 31.2091 29 29 29C26.7909 29 25 27.2091 25 25V15Z" fill="white"/>
    <path d="M35 20C35 18.3431 36.3431 17 38 17C39.6569 17 41 18.3431 41 20V30C41 31.6569 39.6569 33 38 33C36.3431 33 35 31.6569 35 30V20Z" fill="white"/>
    
    <!-- Small circle -->
    <circle cx="32" cy="18" r="3" fill="white"/>
  </g>
  
  <!-- Logo Text -->
  <g id="logo-text">
    <text x="75" y="25" font-family="Playfair Display, serif" font-size="24" font-weight="700" fill="url(#gradient)">
      GlowMuse
    </text>
  </g>
  
  <!-- Gradient definition -->
  <defs>
    <linearGradient id="gradient" x1="0%" y1="0%" x2="100%" y2="0%">
      <stop offset="0%" style="stop-color:#c2767b;stop-opacity:1" />
      <stop offset="100%" style="stop-color:#5a1e2e;stop-opacity:1" />
    </linearGradient>
  </defs>
</svg>
